<?xml version="1.0" encoding="UTF-8"?>
<svg id="_レイヤー_1" data-name="レイヤー_1" xmlns="http://www.w3.org/2000/svg" xmlns:xlink="http://www.w3.org/1999/xlink" baseProfile="tiny" version="1.2" viewBox="0 0 150 110">
  <!-- Generator: Adobe Illustrator 29.3.1, SVG Export Plug-In . SVG Version: 2.1.0 Build 151)  -->
  <g id="_グループ_249" data-name="グループ_249">
    <path id="_パス_41" data-name="パス_41" d="M33.396,89.672v12.8c0,3.956-1.579,3.956-2.525,3.956h-5.385c-1.421,0-1.894-.295-2.147-.541-.663-.669-.989-2.4-.989-5.344h-3.04c0,3.989.541,6.162,1.873,7.485,1.179,1.044,2.731,1.563,4.3,1.44h5.386c1.417.059,2.797-.461,3.824-1.44,1.169-1.177,1.749-2.99,1.749-5.557v-12.799h-3.046Z" fill="#0a8c0d"/>
    <path id="_パス_42" data-name="パス_42" d="M56.978,100.06c1.284-1.323,1.284-3.268,1.284-4.838.132-1.517-.348-3.023-1.332-4.184-1.167-1.023-2.705-1.519-4.25-1.371h-12.69v19.805h3.04v-7.91h8.882c.376,0,2.231-.033,2.877.621.402.515.589,1.165.522,1.814v5.475h3.039v-5.472c.086-1.444-.408-2.862-1.373-3.939M43.03,98.524v-5.817h9.649c.733-.084,1.474.083,2.1.474.338.701.487,1.479.432,2.255,0,2.811-.015,3.089-3.3,3.089h-8.881Z" fill="#0a8c0d"/>
    <path id="_パス_43" data-name="パス_43" d="M83.421,93.068v-2.436h-9.488v-1.34h-2.736v1.34h-9.283v2.436h9.283v1.062h-8.679v9.316h5.753c-1.737,1.772-3.941,3.014-6.357,3.58v2.662c3.639-.664,6.926-2.591,9.283-5.442v5.23h2.737v-5.23c2.351,2.848,5.631,4.775,9.263,5.442v-2.663c-2.413-.568-4.614-1.809-6.348-3.58h5.751v-9.315h-8.667v-1.062h9.488ZM71.197,101.009h-6.243v-1.078h6.243v1.078ZM73.934,99.931h6.233v1.078h-6.234v-1.078ZM64.955,96.564h6.242v1.177h-6.243v-1.177ZM80.168,97.741h-6.233v-1.177h6.233v1.177Z" fill="#0a8c0d"/>
    <path id="_パス_44" data-name="パス_44" d="M103.923,90.045h-16.8v19.381h18.164v-19.381h-1.364ZM89.868,101.109h12.692v5.573h-12.692v-5.573ZM102.56,98.363h-12.692v-5.573h12.692v5.573Z" fill="#0a8c0d"/>
    <path id="_パス_45" data-name="パス_45" d="M123.738,94.849h6.373v-2.42h-9.192v-3.137h-2.738v3.137h-9.575v2.42h6.75c-1.334,3.785-3.673,7.136-6.766,9.692v3.072l.106.2c4.331-2.904,7.647-7.088,9.485-11.968v8.417h-3.717v2.418h3.717v2.8h2.738v-2.8h3.906v-2.417h-3.906v-8.4c1.832,4.873,5.143,9.051,9.47,11.947l.1-.2v-3.069c-3.09-2.557-5.424-5.908-6.752-9.692" fill="#0a8c0d"/>
  </g>
  <path id="_パス_40" data-name="パス_40" d="M149.568,79.436l-24.742-29.824,5.809.1c5.655,0,8.425-.443,12.151-4.152,4.552-4.556,6.905-10.35,7.2-19.575.187-5.964-1.512-14.315-6.546-20.444-3.319-4.023-8.687-5.542-14.857-5.542H58.466v55.25c-.369,5.835-7.519,8.123-21.254,8.123-12.544,0-19.227-1.9-19.227-11.326v-19.559H0v21.993c0,5.688.319,10.655,5.99,16.458,6.062,6.209,17.618,9.724,32.383,9.724,10.289,0,24.6-1.471,32.578-9.446,3.858-3.858,5.492-6.39,5.492-14.987V17.372h48.228c3.481,0,6.283,1.921,6.283,8.008,0,8.008-5.017,8.008-6.209,8.008h-35.529l37.015,46.049h23.338Z" fill="#0a8c0d"/>
</svg>